PathFileType	4	(X/Y/Z)	/Users/niels/Desktop/University/Third Semester/Perception and Action/Exam/Gymnastics Motion Tracking/Code for Gym Tracking/Analyzed Data/Webcam_Backflip/id2_1_pure_Sports2D/id2_1_pure_Sports2D_px_person00.trc
DataRate	CameraRate	NumFrames	NumMarkers	Units	OrigDataRate	OrigDataStartFrame	OrigNumFrames
29.875	29.875	8	22	m	29.875	60	240
Frame#	Time	Hip			RHip			RKnee			RAnkle			RBigToe			RSmallToe			RHeel			LHip			LKnee			LAnkle			LBigToe			LSmallToe			LHeel			Neck			Head			Nose			RShoulder			RElbow			RWrist			LShoulder			LElbow			LWrist		
		X1	Y1	Z1	X2	Y2	Z2	X3	Y3	Z3	X4	Y4	Z4	X5	Y5	Z5	X6	Y6	Z6	X7	Y7	Z7	X8	Y8	Z8	X9	Y9	Z9	X10	Y10	Z10	X11	Y11	Z11	X12	Y12	Z12	X13	Y13	Z13	X14	Y14	Z14	X15	Y15	Z15	X16	Y16	Z16	X17	Y17	Z17	X18	Y18	Z18	X19	Y19	Z19	X20	Y20	Z20	X21	Y21	Z21	X22	Y22	Z22
60	2.00836820083682	0.9708634930662435	-0.5508904622268681	0.0	0.9694252300791487	-0.548824779318885	0.0	0.9683028333267745	-0.6672896588319869	0.0	0.9420700490409563	-0.7870656562062625	0.0	0.9761304959008665	-0.8114089420444663	0.0	0.9664424499675207	-0.8147971732240861	0.0	0.932635572015829	-0.8025329171680755	0.0	0.9750777126267173	-0.5490006239175486	0.0	0.9700553089656123	-0.666834471303912	0.0	0.9441782129202325	-0.7828002351602704	0.0	0.9809508387344082	-0.8089776486697077	0.0	0.9748609178307234	-0.805881328322885	0.0	0.9292553240634144	-0.7978364504630415	0.0	0.9720182540937741	-0.39598470666370755	0.0	0.9989237729888589	-0.3209405519141294	0.0	1.0027081307986256	-0.3605713394092716	0.0	0.9593423545250461	-0.4010852872836412	0.0	0.9629774699302621	-0.32093147219501955	0.0	0.9658782518611067	-0.25506777562357075	0.0	0.9724610258680221	-0.40536402772414765	0.0	0.9693593704286791	-0.3272907171982884	0.0	0.9671304402034765	-0.2613658719600697	0.0
61	2.0418410041841004	0.9712918459125932	-0.5518728157705527	0.0	0.9695442756477879	-0.5497730016301282	0.0	0.9683935968084132	-0.6680824319999615	0.0	0.9422009529865621	-0.787754061318612	0.0	0.9760100962638489	-0.8120062775685312	0.0	0.9665176452739166	-0.8152945310099656	0.0	0.9326392178026123	-0.8030301747264534	0.0	0.9756205988828034	-0.5498974438026598	0.0	0.9701151592274608	-0.6675628476177995	0.0	0.9440301727105836	-0.7834629141322957	0.0	0.9806411108799735	-0.8100373440355587	0.0	0.9747815142237364	-0.8072111036254651	0.0	0.929056632804208	-0.7985218235064728	0.0	0.9723089945741745	-0.3969800420368677	0.0	0.9993981714616056	-0.3222418470322268	0.0	1.0033050128441268	-0.3617946529752501	0.0	0.9595818628271439	-0.40221957752973475	0.0	0.9630762750188705	-0.32202110488104746	0.0	0.96594742671848	-0.25631911436454524	0.0	0.9732448972730783	-0.4064972022822329	0.0	0.9691366931404224	-0.32808117711505647	0.0	0.9670620357409251	-0.2623829798892706	0.0
62	2.0753138075313804	0.9716884094341146	-0.553306028679575	0.0	0.9697230320356689	-0.5512510497424394	0.0	0.9684463628838209	-0.6691771309711886	0.0	0.9422347202965523	-0.7887065823075771	0.0	0.9757546832283285	-0.8127164585531829	0.0	0.9663474266277458	-0.8161264724326096	0.0	0.9325352512995462	-0.8040319387719801	0.0	0.9760073410957933	-0.5513182641659575	0.0	0.9702301625861706	-0.6686550642731793	0.0	0.9439083140970538	-0.784375229675517	0.0	0.9805031627727591	-0.8111518552917178	0.0	0.9746712116036045	-0.8085231887976054	0.0	0.928866087422798	-0.7994107965673907	0.0	0.9724637612714218	-0.3982466739320324	0.0	0.9996781963399349	-0.3237609507674583	0.0	1.0036062292887697	-0.3632071258945943	0.0	0.9598576061029056	-0.4036246938298	0.0	0.9630957781345602	-0.3234889189815123	0.0	0.9661396140947192	-0.2577504640149704	0.0	0.9737540244316424	-0.4077428435673395	0.0	0.9691478617132864	-0.32927288204005517	0.0	0.967188035349799	-0.2637529784820084	0.0
63	2.108786610878661	0.9719797576168315	-0.5551616270818586	0.0	0.9700607199841739	-0.5532070915530238	0.0	0.9684967973583314	-0.6704915831252737	0.0	0.9421858098118372	-0.7899188335529991	0.0	0.9751585103846389	-0.8136037029552254	0.0	0.9657704222313525	-0.817449820735964	0.0	0.9323994276433896	-0.8056041226908406	0.0	0.9761218542427001	-0.5531964023685312	0.0	0.970426272830813	-0.669996356960127	0.0	0.9439095180800608	-0.7855308085615932	0.0	0.9806050356839093	-0.812235292269747	0.0	0.9744524529658583	-0.8095531323727307	0.0	0.9287996285580838	-0.8005719003603824	0.0	0.97247161160948	-0.39961458897005114	0.0	0.9996204268847534	-0.3252376873431164	0.0	1.0032707343825638	-0.3644227552844381	0.0	0.9602768571540242	-0.40516248245456654	0.0	0.9630338745394285	-0.3251097099819897	0.0	0.9665076182390447	-0.25893644224657963	0.0	0.9736379601016094	-0.4089212555411982	0.0	0.9693397228825481	-0.3307214842984955	0.0	0.9674814690671211	-0.2650813578035027	0.0
64	2.1422594142259412	0.972144567843656	-0.5571789732020007	0.0	0.9705286419723647	-0.5553638162427063	0.0	0.9685816547609779	-0.6719014911072687	0.0	0.9420941679728801	-0.7912824642265883	0.0	0.9743055921851815	-0.8147016434132452	0.0	0.9649276525370224	-0.8192097588461807	0.0	0.9323177050662105	-0.8075187109970206	0.0	0.9760407189875266	-0.5552296660777237	0.0	0.970643539950823	-0.6714302458488781	0.0	0.9440086643526728	-0.786861129727635	0.0	0.9808923095524049	-0.8133343730032195	0.0	0.9741519390209733	-0.8103800077480146	0.0	0.928867231334615	-0.8019926582697826	0.0	0.9723638684080549	-0.40095597601965666	0.0	0.9993038353886651	-0.3266061097209021	0.0	1.0023537203179504	-0.36539773022538413	0.0	0.9607915070232596	-0.4066051346216185	0.0	0.9629248307615892	-0.3265888696811484	0.0	0.9669944620598596	-0.2596950593944379	0.0	0.9729344159245342	-0.40990724502754705	0.0	0.969611359783036	-0.33211982277654767	0.0	0.9678630146866213	-0.26609753617704984	0.0
65	2.1757322175732217	0.9722176196195027	-0.5590089537221495	0.0	0.971005370133737	-0.5573844989875595	0.0	0.9687000065413255	-0.6732799941825655	0.0	0.9420127284595584	-0.7926471407233759	0.0	0.973463684662427	-0.8159505692907787	0.0	0.9641353173198502	-0.8211344970603845	0.0	0.9323376554220519	-0.8093983253548312	0.0	0.9759357586558757	-0.5570623514903735	0.0	0.9708083075106332	-0.6727815581835027	0.0	0.9441365898637054	-0.788231339690859	0.0	0.9812947188616002	-0.8144735184396089	0.0	0.9739287876043948	-0.8111696543766912	0.0	0.9290253303133997	-0.8035402094024782	0.0	0.972209111425886	-0.40217184047120647	0.0	0.9988910788288552	-0.3278228126591881	0.0	1.0011901649636574	-0.36625139558712844	0.0	0.9612683738503456	-0.40775465758639057	0.0	0.9628335325442218	-0.32771133628130483	0.0	0.9674693954589393	-0.26011049103203704	0.0	0.9720172949359882	-0.41064278180395697	0.0	0.9699469827889312	-0.33323144000434474	0.0	0.9682868433289916	-0.2667773027391783	0.0
66	2.209205020920502	0.9722571382707266	-0.5604382455005411	0.0	0.9713685572103258	-0.5590672736219954	0.0	0.9688112360946378	-0.6745173630637211	0.0	0.9419850512922678	-0.7938767012096042	0.0	0.9728321492025448	-0.8171672714344284	0.0	0.96362264182436	-0.822848307361393	0.0	0.9324754447396244	-0.8109489047723981	0.0	0.9759179995271424	-0.5585029636992049	0.0	0.9708954659778456	-0.6739107279510501	0.0	0.9442723753486668	-0.7894671197275036	0.0	0.9817502284144576	-0.8155055342927469	0.0	0.9739578406971798	-0.811897452110838	0.0	0.9292557808916043	-0.8049848262690287	0.0	0.972073960134214	-0.4031700306009928	0.0	0.9984451208328772	-0.32874378812193006	0.0	1.0001032046580824	-0.36698547460190406	0.0	0.9616036703567487	-0.40857463022242974	0.0	0.9628128668171413	-0.3284577193930384	0.0	0.9678514220501168	-0.2604202197957956	0.0	0.9713120700768989	-0.41115629039358426	0.0	0.9703728783024947	-0.33405266864350225	0.0	0.9687544315257332	-0.26728825752550034	0.0
67	2.242677824267782	0.9723039192298958	-0.561433638243058	0.0	0.9715795313252349	-0.5603608770407296	0.0	0.9688830201328935	-0.6754808951438829	0.0	0.9420081919061528	-0.7948426823388017	0.0	0.9724566010227521	-0.8180509109101357	0.0	0.9634317178463333	-0.8240048957816545	0.0	0.9327116661957139	-0.8120471809747364	0.0	0.9760088304631266	-0.5595516357712699	0.0	0.9709387955307982	-0.6747124118304169	0.0	0.944464024463237	-0.7903954789633946	0.0	0.982245182515713	-0.8160882932365867	0.0	0.9743633326899769	-0.8122777529740942	0.0	0.9295858969615896	-0.8060475995323441	0.0	0.972004418758945	-0.4038763349714773	0.0	0.997925702219584	-0.3291945332816938	0.0	0.9992407807769622	-0.36743621691567463	0.0	0.9617714543690731	-0.40916349128452434	0.0	0.9628716546912558	-0.3289149497623397	0.0	0.9681708348997925	-0.2608136551955563	0.0	0.9710637573136162	-0.41154485230553006	0.0	0.970855996534551	-0.3347154522851724	0.0	0.9692774659179871	-0.26778287135095874	0.0
